<?xml version="1.0" encoding="utf-8"?>
<!-- Generator: Adobe Illustrator 25.3.0, SVG Export Plug-In . SVG Version: 6.00 Build 0)  -->
<svg version="1.1" id="Layer_1" xmlns="http://www.w3.org/2000/svg" xmlns:xlink="http://www.w3.org/1999/xlink" x="0px" y="0px"
	 viewBox="0 0 56.7 56.7" style="enable-background:new 0 0 56.7 56.7;" xml:space="preserve">
<style type="text/css">
	.st0{fill:#F2F2F2;}
</style>
<g>
	<circle class="st0" cx="28.1" cy="28.6" r="5.1"/>
	<path class="st0" d="M34.4,16.1H21.7c-1.8,0-3.5,0.6-4.5,1.6s-1.6,2.7-1.6,4.5v12.7c0,1.8,0.6,3.5,1.7,4.6c1.2,1,2.7,1.6,4.5,1.6
		h12.6c1.8,0,3.5-0.6,4.5-1.6c1.2-1,1.7-2.7,1.7-4.5V22.3c0-1.8-0.6-3.3-1.6-4.5C37.9,16.7,36.4,16.1,34.4,16.1z M28.1,36.4
		c-4.4,0-7.9-3.6-7.9-7.9c0-4.4,3.6-7.9,7.9-7.9s8,3.5,8,7.9S32.5,36.4,28.1,36.4z M36.3,22.2c-1,0-1.8-0.8-1.8-1.8s0.8-1.8,1.8-1.8
		c1,0,1.8,0.8,1.8,1.8S37.3,22.2,36.3,22.2z"/>
	<path class="st0" d="M28.3,0C12.6,0-0.1,12.6-0.1,28.3s12.7,28.4,28.4,28.4s28.4-12.7,28.4-28.4C56.8,12.6,44,0,28.3,0z M43.4,35
		c0,2.7-0.9,5-2.5,6.6c-1.6,1.6-3.9,2.4-6.5,2.4H21.8c-2.5,0-4.8-0.8-6.5-2.4c-1.7-1.6-2.5-3.9-2.5-6.6V22.3c0-5.3,3.6-9,9-9h12.7
		c2.7,0,4.8,0.9,6.5,2.5c1.6,1.6,2.4,3.8,2.4,6.5C43.4,22.3,43.4,35,43.4,35z"/>
</g>
</svg>
