<?xml version="1.0" encoding="utf-8"?>
<!-- Generator: Adobe Illustrator 25.3.0, SVG Export Plug-In . SVG Version: 6.00 Build 0)  -->
<svg version="1.1" id="Layer_1" xmlns="http://www.w3.org/2000/svg" xmlns:xlink="http://www.w3.org/1999/xlink" x="0px" y="0px"
	 viewBox="0 0 24 24" style="enable-background:new 0 0 24 24;" xml:space="preserve">
<style type="text/css">
	.st0{fill:#F2F2F2;}
</style>
<g>
	<polygon class="st0" points="12.2,10.6 7.7,4.4 5.4,4.4 10.9,12.1 11.6,13.1 16.3,19.6 18.6,19.6 12.9,11.6 	"/>
	<path class="st0" d="M22,0H2C0.9,0,0,0.9,0,2v20c0,1.1,0.9,2,2,2h20c1.1,0,2-0.9,2-2V2C24,0.9,23.1,0,22,0z M15.5,20.7l-4.8-6.8
		l-6,6.8H3.3l6.8-7.8L3.3,3.3h5.2L13,9.7l5.6-6.4h1.5l-6.5,7.4l7.1,10.1H15.5z"/>
</g>
</svg>
